<svg id="图层_1" data-name="图层 1" xmlns="http://www.w3.org/2000/svg" viewBox="0 0 214.17 198.87"><defs><style>.cls-1{fill:#fefefe;}.cls-2{fill:#352e2b;}.cls-3{fill:#5b7d4e;}.cls-4{fill:#37302d;}.cls-5{fill:#372f2c;}.cls-6{fill:#3a3431;}.cls-7{fill:#496040;}.cls-8{fill:#f7e4d1;}.cls-9{fill:#473f3c;}.cls-10{fill:#dabea3;}.cls-11{fill:#5b514e;}.cls-12{fill:#d6bba0;}.cls-13{fill:#475d3f;}.cls-14{fill:#5c7b4e;}.cls-15{fill:#d7bea4;}.cls-16{fill:#efefef;}.cls-17{fill:#ceb49b;}.cls-18{fill:#59504d;}.cls-19{fill:#c07173;}.cls-20{fill:#463f3d;}.cls-21{fill:#c47174;}.cls-22{fill:#4e5c41;}.cls-23{fill:#dbdada;}.cls-24{fill:#cdcbcb;}.cls-25{fill:#cfcdcc;}.cls-26{fill:#574e4a;}.cls-27{fill:#506946;}.cls-28{fill:#cf9c9a;}.cls-29{fill:#c99896;}.cls-30{fill:#cc9a98;}.cls-31{fill:#bc8e8c;}.cls-32{fill:#bf908e;}.cls-33{fill:#ae6c6a;}.cls-34{fill:#b46f6d;}.cls-35{fill:#9d6462;}.cls-36{fill:#a26664;}.cls-37{fill:#bc8f8d;}.cls-38{fill:#3a322f;}.cls-39{fill:#bc7976;}.cls-40{fill:#d7bb9f;}.cls-41{fill:#fcf1dd;}.cls-42{fill:#d6ba9e;}.cls-43{fill:#f6e3d0;}.cls-44{fill:#b87471;}.cls-45{fill:#b46a68;}.cls-46{fill:#f2ddca;}.cls-47{fill:#443c38;}.cls-48{fill:#f8e8d3;}.cls-49{fill:#524a45;}.cls-50{fill:#cd9392;}</style></defs><path class="cls-1" d="M208.73,219.26c-34.11,0-68.21-.1-102.31.13-4.29,0-5-1-5-5.09q.24-94.29,0-188.58c0-3.9.36-5.22,4.88-5.2q102.32.29,204.62,0c3.88,0,4.6,1,4.6,4.69q-.19,94.67.05,189.33c0,4.71-1.58,4.79-5.3,4.77C276.43,219.2,242.58,219.26,208.73,219.26Z" transform="translate(-101.42 -20.52)"/><path class="cls-2" d="M250.17,211.43h-4.58c-2.65-2.9-1.85-6.67-2.42-10.07-.69-4.11-2-6.53-6.9-5.13-5.14,1.46-10.51.75-15.79.78s-9.54-1.41-11.19-7c-.92-3.13-2.86-3-5.27-2-12.18,4.73-24.69,3.05-37.47,1.93,1.76,7.1,6.4,13.65,4.8,21.5-4.07,1-6.11-.36-6.42-4.72-.3-4.09-2.41-6.06-7-5.66-8.17.72-15.07-3.57-22.28-6.49-2.37-1-3.14-2.95-3.55-5.37-3-17.65-6.88-35.19-8.94-52.94-3.37-29,15.85-55.32,44.56-62.79s58.62,6.58,70.39,33.34c2.08,4.71,3.17,6.49,9.42,5,5.46-1.27,11.44-.77,17.38-2.4,5.62-1.55,10.31,3.24,13.29,8.24,2.62,4.4,3.46,9.1-.42,13.29-1.88,2-1.91,3.55-.64,5.95,3.38,6.38,4.13,13.49,4.46,20.55.75,16.38,1.4,32.77,3.45,49.06.47,3.72.26,6.11-4.4,4.86-3.7-4.41-3.16-9.84-3.78-15-1.73-14.47-1-29.1-2.92-43.58-.64-4.81-.91-7.93-6.92-4.41-4.55,2.67-9.72,2-14.6,0-2.37-.83-5.8-3.5-4.08,2.5,2.62,9.12,4.78,18.36,7.64,27.42.9,2.83,2.28,5.62,1.19,8.73-6,3.24-8.2,8-5.61,14.55a18.53,18.53,0,0,1,.29,6.8A5.89,5.89,0,0,1,250.17,211.43Z" transform="translate(-101.42 -20.52)"/><path d="M171.35,211.44c-3.11-7.87-3.62-16.66-9.73-24.71,17.15,3.15,33,4.47,48-3.13,3,11.81,7.18,13.67,24.22,11.33,3.19-.44,7.53-3.82,9-1.71,2.21,3.15,2.06,8,2.68,12.18a40.44,40.44,0,0,1,0,6Z" transform="translate(-101.42 -20.52)"/><path class="cls-3" d="M251.76,146.43c8.18,2.56,15.82,2.7,22.15-6.2,5.09,24.36,3,48.05,6.75,71.16l-16.78,0c-4.87-9-4.57-19-6-28.65-2.85-10.34-7.16-20.26-9.09-30.85C248.4,149.87,245.37,145.28,251.76,146.43Z" transform="translate(-101.42 -20.52)"/><path class="cls-4" d="M146.54,65c-8.5,8-11.7,8.64-16.76,3.17-1.39-1.51-3.45-3.74-2.5-5.19,4.95-7.58-4.43-13.75-1.7-20.93a3.36,3.36,0,0,1,.3-.7c1.1-1.77,3.19-4.17,4.5-3.58,9.27,4.21,15.6-9.64,21.12-5.67s10.83,7.73,16.73,11.28c4.4,2.64,1.11,7.45-3.49,9.71-1.78.88-5.59.34-3.5,4.73,2.32,4.84,4.37,10.18-2.2,13.72C154.9,73.76,152.61,72.46,146.54,65Z" transform="translate(-101.42 -20.52)"/><path class="cls-5" d="M251.29,84.39c-4.44-5.24-7.63-.45-11.67,1.82-3.82,2.16-7.15-.36-8.5-3.85-1.27-3.27-2.46-4.67-6.3-4.71-4.28-.05-7.76-2.6-7.93-7.52-.17-4.62,2.36-7.65,6.74-8.84,3.21-.86,6.32-1.1,5.24-5.95A5.82,5.82,0,0,1,233,48.17a6.39,6.39,0,0,1,7.9,2.94c2,3.64,4.37,3.65,7.88,2.87s7.17-.58,9.43,3c2,3.16.83,5.7-1.69,8s.52,3.32,1.38,4.71c2.14,3.47,2.87,7.14.9,10.73C257.45,82.93,254.87,84.23,251.29,84.39Z" transform="translate(-101.42 -20.52)"/><path class="cls-6" d="M200.85,36.52a6.91,6.91,0,0,1,1.53.18c1.88.7,6.49,16.69,5.52,18.56-1.19,2.3-3.06,2.64-5.07,1.68-2.94-1.4-4.17-4.06-2.53-6.88,1.45-2.48,1-4.49-.6-6.08s-3.12.78-4.82.92c-3.4.29-2.29,2.42-1.62,4.38a71.81,71.81,0,0,1,2.5,7.91c.57,2.63-1.16,4.26-3.31,5.33-1.91.95-3.45-.12-4.72-1.4-1.65-1.67-2-3.82-.12-5.3,3.68-2.86.71-5.63-.06-8.12-1.41-4.5-1.5-7.55,4.42-7.42C195.49,40.35,198,37.88,200.85,36.52Z" transform="translate(-101.42 -20.52)"/><path class="cls-7" d="M259.32,182.84l4.56,28.59H250.17c0-1,.07-1.9.11-2.84a8.34,8.34,0,0,0-.1-7.52c-3.5-9.73-2.3-12.43,6.09-13.65,4.18,1,1.32,4.18,2.14,5.92C259.93,190.21,256.31,186.2,259.32,182.84Z" transform="translate(-101.42 -20.52)"/><path class="cls-8" d="M142.62,167.66c-17.6-18.1-20.52-47.86-6.39-65.27,1.34-.6,2,.22,2.44,1.27a8.6,8.6,0,0,1-.47,4.26c-.59,2-1.46,4-2.07,6-1.09,3,.11,5.57,2.16,7.51,10,9.48,28.56,17.86,43.48,11.79,7.56-3.08,13.51-7.4,17.29-14.7,1.71-3.32,2.94-6.95,5.57-9.77a10.48,10.48,0,0,1,4-2.1c7.89-2.38,11,.29,9.93,8.58a13.48,13.48,0,0,1-.89,3.68,132.86,132.86,0,0,0-9.74,34,32.44,32.44,0,0,1-3.43,6.21c-1.92,2.89-4,5.66-7.07,7.43a48.12,48.12,0,0,1-27.38,8.85,13.28,13.28,0,0,1-2.35-.41C159,173.7,150.12,173,142.62,167.66Z" transform="translate(-101.42 -20.52)"/><path class="cls-9" d="M248.72,182.94c-7.88,7.25-17.46,8.19-27.54,7.55-3.53-.23-7-1.61-5.53-5.18,3.56-8.95-.45-17.8.58-26.83s2.57-17.91,5.76-26.28c3.52-9.23,4.38-18.55,4-28.19,4.05.27,4.41,3.68,5.14,6.44,2,7.55,4,15.08,4.76,22.93a133.52,133.52,0,0,0,10.3,40.88A28,28,0,0,1,248.72,182.94Z" transform="translate(-101.42 -20.52)"/><path class="cls-10" d="M142.62,167.66l25.74,6.08a2.46,2.46,0,0,1-2.11.74,4.09,4.09,0,0,0,3.55-.7,52.22,52.22,0,0,0,27.34-9c4-.1,5.47-2.68,6-6.18l3-4.59c2.32-1.36,1.17-4.94,5-6.5.51,8.15.84,15.91-.21,23.73,1.25,4.69-.47,7.36-5,9.35A56.59,56.59,0,0,1,142.62,167.66Z" transform="translate(-101.42 -20.52)"/><path class="cls-9" d="M209.27,87.32c-5.12-.19-6.65,2-4.65,6.77.84,2,1.65,4.31-1.47,5.38-5.55-2-12.4-1.73-15.21-8.57-1-1.19-.76-3.4-3-3.51-2.85-4.33-5.32-4.86-7.18.71-.71,2.12-1.38,4.26-2,6.39-1.91,6.16-10.85,9-16.11,5.14-2.37-1.72-2-3.7-1.26-6,.59-1.75,2.84-3.76.51-5.33-2.63-1.78-3.83,1.3-5.48,2.58-.79.61-1.43,1.41-2.16,2.1-2.28,2.15-5.34,3.19-7.22.56s1.66-3.42,3.22-4.8C157.74,79.52,170.73,77,184,75.3c1.93-.25,4.07-.45,5.6,1.37A3.76,3.76,0,0,1,187,78.06a8.45,8.45,0,0,1-2.4-.16c6.58.38,14.42.69,21.26,5C207.55,84,209.6,84.72,209.27,87.32Z" transform="translate(-101.42 -20.52)"/><path class="cls-11" d="M209.27,87.32c-7.43-6.5-16.54-8.15-26.09-7.73.11-3.2,1.63-2.71,2.66-2.81,1.23-.13,2.49-.08,3.74-.11,20.86,1.86,40.81,17.07,45.83,36.14,2.21,8.38,1.7,17.45,3.51,26,2.75,13,6.49,25.79,9.69,38.7.43,1.73,2.51,3.6.11,5.44-9.39-16.29-13.3-34.1-15.36-52.59-1-9-2.52-18.24-7.38-26.34,0-2.67-.56-6.13-3.51-5.66C213.38,99.81,212,92.91,209.27,87.32Z" transform="translate(-101.42 -20.52)"/><path class="cls-12" d="M210.9,171.22V149.66c-3.08.35-1.17,5.06-4.76,4.33a94.3,94.3,0,0,1,8.94-33.59c1.82-3.77,3.83-9,.73-12-2.77-2.67-7.38.46-11.05,1.7a15.68,15.68,0,0,1-5.16.09,24.73,24.73,0,0,0-11.25-.54,5.68,5.68,0,0,1-2.09-.62c-1.67-1.7-2.65-3.61-1.89-6.07a1.23,1.23,0,0,1,1.81-.42c6.83,3.65,13.78,2.77,20.82.68,12-3.57,16.47.43,14,12.89-1.06,5.41-2.15,11-4.38,16C211,144.68,212.69,158.17,210.9,171.22Z" transform="translate(-101.42 -20.52)"/><path class="cls-9" d="M133.36,166.52c5.75,9.8,18.24,11.92,24,21.32,1.41,2.31,4.31,4.69,2.61,7.24-1.88,2.8-5.41,1.48-8.29.68-14.1-3.9-15.54-5.73-16.79-20.49C134.61,172.33,133.87,169.44,133.36,166.52Z" transform="translate(-101.42 -20.52)"/><path class="cls-13" d="M259.32,182.84V195.6c-2.68-2.81-.22-6.49-3.05-8.18C252.44,173.2,248.62,159,244.58,144c3.11.29,5.36.61,7.18,2.48-4.59,1.59-1.31,4.74-1,6.84C252.35,163.46,258.11,172.5,259.32,182.84Z" transform="translate(-101.42 -20.52)"/><path class="cls-14" d="M267,140.75c-5.23,4.08-10.32,3-15.34-.42-.82-2.12-.32-4.24-.06-6.37.37-3.17,2.61-5.11,4.69-7.15,5,.21,9.31,1.65,11.81,6.43A7.48,7.48,0,0,0,267,140.75Z" transform="translate(-101.42 -20.52)"/><path class="cls-15" d="M138,103.91l-1.76-1.52c.85-5.73,3.84-4.89,8-3.2,10.09,4.08,19.92,9.56,31.49,7.65l.39,1.07c-3.52,4.3-8.87,3.38-13.43,4.72a5.33,5.33,0,0,1-3.15-.36c-2.92-3.69-7.27-4.2-11.47-5-2.12-.3-4.14-1.06-6.28-1.29A5.58,5.58,0,0,1,138,103.91Z" transform="translate(-101.42 -20.52)"/><path class="cls-16" d="M262,116.37c3.55-5.24,6.85-1.73,9.6.66s5.71,5.94,3.17,9.83c-3.21,4.92-5.07-1.87-7.92-1.56-1.76-2.18,0-6.48-4.26-7.14A1.75,1.75,0,0,1,262,116.37Z" transform="translate(-101.42 -20.52)"/><path class="cls-17" d="M186.18,102.55l-1.46.13c-2.46,2.43-4.2,6.12-8.71,4.89a4.84,4.84,0,0,1-.25-.73c3.74-3.62,2.7-9.44,6.75-14.22Z" transform="translate(-101.42 -20.52)"/><path class="cls-18" d="M188,90.37c3.6,5.44,10.9,4.73,15.14,9.1-6.22-.16-13.57,2-15.17-7.51-.41-.36-.54-.72-.4-1.07S187.87,90.37,188,90.37Z" transform="translate(-101.42 -20.52)"/><path class="cls-19" d="M267,140.75c-2.18-.35-3.47-1.46-3.23-3.83.26-2.6,1.79-3.74,4.33-3.69C272.17,136.39,272,138.92,267,140.75Z" transform="translate(-101.42 -20.52)"/><path class="cls-20" d="M262.25,116.68c8.22-.66,6.32,4,4.55,8.62l-4.58-1.61C261,121.35,260.39,119,262.25,116.68Z" transform="translate(-101.42 -20.52)"/><path class="cls-21" d="M253.07,134.69a7.83,7.83,0,0,1-1.41,5.64c-3.29-1.48-8.72-1.67-4.58-7.62C249.81,131.15,251.57,132.52,253.07,134.69Z" transform="translate(-101.42 -20.52)"/><path class="cls-22" d="M253.07,134.69l-6-2c1.37-4.61,5-5.74,9.21-5.9C255.22,129.43,254.14,132.06,253.07,134.69Z" transform="translate(-101.42 -20.52)"/><path class="cls-23" d="M245.58,117.52c5.27-3.7,7.51-1.65,8.79,5.18-3.75-1.46-5.15-5.83-8.75-3.69-.43-.32-.57-.65-.44-1S245.44,117.52,245.58,117.52Z" transform="translate(-101.42 -20.52)"/><path class="cls-24" d="M245.58,117.52a4.38,4.38,0,0,1,0,1.49c-2,2.34,1.25,5.16-.53,7.68C241.29,122.52,241.38,121.28,245.58,117.52Z" transform="translate(-101.42 -20.52)"/><path class="cls-25" d="M262.25,116.68l0,7c-2.91-2.34-5.74-4.68-.27-7.32Z" transform="translate(-101.42 -20.52)"/><path class="cls-26" d="M188,90.37,188,92c-1-1.52-2-3-3-4.57.13-.88.3-2.31,1.31-1.91C188.41,86.33,187.93,88.54,188,90.37Z" transform="translate(-101.42 -20.52)"/><path class="cls-27" d="M250.18,201.07c2.28,2.48,2.25,5,.1,7.52C250.25,206.08,250.21,203.57,250.18,201.07Z" transform="translate(-101.42 -20.52)"/><path class="cls-28" d="M139.49,55.39c2.53.08,4.8,0,4.43,2.5-.63,4.25-3.2,7.62-7.42,8.39-2.66.49-4.73-2-4.56-4.84C132.25,56.38,136.87,56.62,139.49,55.39Z" transform="translate(-101.42 -20.52)"/><path class="cls-29" d="M140.46,46.17c-.55,2.62-1.07,4.71-3.71,4.44-3-.32-6.06-1.08-6.65-4.74-.39-2.39,1-3.78,3.39-3.83C136.85,42,138.73,44.2,140.46,46.17Z" transform="translate(-101.42 -20.52)"/><path class="cls-30" d="M158.25,64c.08,1.78-.58,3.73-2.23,3.19-4.76-1.57-5-6.23-6-10.24-.29-1.23.28-2.76,2-2.23C156.53,56.18,157.33,60.24,158.25,64Z" transform="translate(-101.42 -20.52)"/><path class="cls-31" d="M151.07,49c5.1-3.65,9.08-4.21,15.25-3.34C161.32,50.39,157.15,50.3,151.07,49Z" transform="translate(-101.42 -20.52)"/><path class="cls-32" d="M151.52,39.36c-.39,2.45-1.69,4.46-4.11,4.75-2,.23-2.16-1.8-1.86-3.29.47-2.35,1.83-4.26,4.39-4.34C151.56,36.43,151.42,38.15,151.52,39.36Z" transform="translate(-101.42 -20.52)"/><path class="cls-33" d="M254.82,74.75c.18,2.42-.56,4.48-2.43,4.37-4.11-.25-5.4-3.78-6.42-7.1-.55-1.81.7-2.89,2.43-2.78C252.1,69.47,254,71.81,254.82,74.75Z" transform="translate(-101.42 -20.52)"/><path class="cls-34" d="M226.64,73.18c-2.49-.16-4.72-1.07-4.76-3.76,0-2.86,2.62-3.24,4.83-3.81,3.2-.84,4.1,1.33,4.42,3.65C231.58,72.54,228.5,72.24,226.64,73.18Z" transform="translate(-101.42 -20.52)"/><path class="cls-33" d="M241,77.53c-.33,1.54-.94,3.51-3.34,3.68s-2.74-1.65-2.83-3.45c-.11-2.25.72-3.81,3.28-3.84C240.3,73.89,241.34,74.89,241,77.53Z" transform="translate(-101.42 -20.52)"/><path class="cls-35" d="M254.87,59.55c-2.87,3.24-5.47,4.84-8.9,4.27-.89-.14-1.24-1.59-.64-2.55C247.47,57.87,250.49,58,254.87,59.55Z" transform="translate(-101.42 -20.52)"/><path class="cls-36" d="M239.06,57.22c.15,2.14-1.07,2.49-2.32,2.61-2.85.27-3.22-1.7-3.2-3.83,0-1.42-.09-3.35,2.16-2.86S238.22,55.94,239.06,57.22Z" transform="translate(-101.42 -20.52)"/><path class="cls-37" d="M241.13,66.57c-.41,1.76-1.12,2.66-2.62,2.55a1.6,1.6,0,0,1-1.65-2c.28-1.14.9-2.54,2.41-2.24C240,65.07,240.62,66.09,241.13,66.57Z" transform="translate(-101.42 -20.52)"/><path class="cls-38" d="M200.31,108.78a3.48,3.48,0,0,1,4.45,1.33c-4.21,14.65-13.32,24.69-28.68,26.65-16,2.05-29.71-4.12-40.8-15.78-2.21-2.32-3.68-5-.43-7.83,5.63-.06,6.31,6.26,10.47,8.1,11.1,7,22.44,12.41,36,7.07a25.44,25.44,0,0,0,9.81-6.72C195.27,118.09,195.85,112,200.31,108.78Z" transform="translate(-101.42 -20.52)"/><path class="cls-39" d="M143.83,122.25c-4.13-1.91-5.21-6.84-9-9.1l1.59-6c1.67-1.43,3.69-1.58,5.76-1.56a17.07,17.07,0,0,1,4.8.92c4.86,1.26,6.82,4.4,6.08,9.31C151.7,120.41,148.54,122.44,143.83,122.25Z" transform="translate(-101.42 -20.52)"/><path class="cls-40" d="M203.12,158.58c1.21,5.16-1.06,6.94-6,6.18Z" transform="translate(-101.42 -20.52)"/><path class="cls-41" d="M142.46,106.78l-6,.38c.51-1.08,1-2.16,1.55-3.25l4.48.19A1.65,1.65,0,0,1,142.46,106.78Z" transform="translate(-101.42 -20.52)"/><path class="cls-42" d="M169.8,173.78c-1.75,2-3.85,1.79-6.21,1,1.43-1.7,3.25-.63,4.77-1A9.9,9.9,0,0,1,169.8,173.78Z" transform="translate(-101.42 -20.52)"/><path class="cls-43" d="M143.83,122.25c2.58-2.14,6.34-2.73,8-6.11.64-1.38,1.54-2.34,3.24-2,2.94.62,5.94,1.46,7.18-2.61l13.79-4c3.62-.35,4.68-5.26,8.71-4.89q1,3.09,2,6.16c.95,2.86-.72,6.12,1.36,8.79,1.25,1.87,4,2.18,4.73,4.61-10.16,11.54-25.38,13.39-41.55,4.92A84.1,84.1,0,0,1,143.83,122.25Z" transform="translate(-101.42 -20.52)"/><path class="cls-44" d="M192.84,122.24c-2-1.15-4.74-.72-6.11-3.07.65-1,1.36-1.91,2-2.93a5,5,0,0,0-.12-3.71c-.47-1.16-1.13-2.31-.54-3.63,4.06-3.14,8.18-1.11,12.28-.12C198.29,113.53,196.75,118.54,192.84,122.24Z" transform="translate(-101.42 -20.52)"/><path class="cls-45" d="M189.54,117.63a2.86,2.86,0,0,1-2.81,1.54c-1.62-3.45-2.42-6.89,0-10.33a3.44,3.44,0,0,1,1.28.06l1.48,2.66C189.21,113.58,190.16,115.6,189.54,117.63Z" transform="translate(-101.42 -20.52)"/><path class="cls-46" d="M154.26,114.66l-2.46,1.48c.79-4.29-1.8-6.78-4.83-9a3.61,3.61,0,0,1,1.52-1.43c4.12.77,9,.1,10.64,5.59C158.32,113.56,156.51,114.42,154.26,114.66Z" transform="translate(-101.42 -20.52)"/><path class="cls-47" d="M154.26,114.66a5.75,5.75,0,0,1,4.87-3.39l3.09.26c1.31,1.5,3.37,3.59.49,4.7C160.06,117.26,156.32,119.05,154.26,114.66Z" transform="translate(-101.42 -20.52)"/><path class="cls-48" d="M148.49,105.68,147,107.11l-4.51-.33c0-.89,0-1.78,0-2.68Z" transform="translate(-101.42 -20.52)"/><path class="cls-49" d="M176.86,117.5c-1,.18-3.15.26-2.93-2.69.18-2.42,2.23-3.11,4.35-3s4.39.81,4.53,3C183,118.31,180,117.07,176.86,117.5Z" transform="translate(-101.42 -20.52)"/><path class="cls-50" d="M189.54,117.63c-.89-2-2.68-4,0-6.07C191.51,113.57,191.78,115.59,189.54,117.63Z" transform="translate(-101.42 -20.52)"/></svg>